# xmcd
#
# Track frame offsets: 
#        150
#        12692
#        23260
#        33819
#        43091
#        52216
#        63490
#        73876
#        81593
#        92717
#        102830
#        115134
#        125927
#        134557
#
# Disc length: 1963 seconds
#
# Revision: 2
# Processed by: cddbd v1.5.2PL0 Copyright (c) Steve Scherf et al.
# Submitted via: ExactAudioCopy v1.3
#
DISCID=ce07a90e
DTITLE=Various Artist - Mad About Bluegrass
DYEAR=2009
DGENRE=Bluegrass
TTITLE0=Bill Monroe - Kentucky  Waltz
TTITLE1=The Stanley Brothers - Gonna Paint The Town
TTITLE2=Bill Clifton - Dixie Darlin'
TTITLE3=Flatt and Scruggs - Foggy Mountain Special
TTITLE4=Jimmy Martin - Rock Hearts
TTITLE5=Reno and Smiley - Country Boy Rock 'N' Roll
TTITLE6=Charlie Monroe - Down In The Willow Garden
TTITLE7=Smiley Hobbs - Cotton Eyed Joe
TTITLE8=Mac Wiseman - Remembering
TTITLE9=The Country Gentlemen - Poor Ellen Smith
TTITLE10=The Stanley Brothers - Hard Times
TTITLE11=Jim and Jesse - My Little Honeysuckle Rose
TTITLE12=Carl Story - Shout And Shine
TTITLE13=Hylo Brown - Lost To A Stranger
EXTD=
EXTT0=
EXTT1=
EXTT2=
EXTT3=
EXTT4=
EXTT5=
EXTT6=
EXTT7=
EXTT8=
EXTT9=
EXTT10=
EXTT11=
EXTT12=
EXTT13=
PLAYORDER=
